<svg xmlns="http://www.w3.org/2000/svg" width="83.482" height="11" viewBox="0 0 83.482 11"><g transform="translate(-467.999 -1825)"><path d="M11.232,6.032a.823.823,0,0,0-.457-1.4L8,4.224a.363.363,0,0,1-.274-.2L6.479,1.506A.823.823,0,0,0,5,1.506L3.759,4.025a.364.364,0,0,1-.274.2l-2.78.4a.823.823,0,0,0-.457,1.4L2.26,7.993a.364.364,0,0,1,.1.322L1.89,11.083a.806.806,0,0,0,.18.668.832.832,0,0,0,1.015.2l2.486-1.307a.372.372,0,0,1,.338,0L8.4,11.951a.815.815,0,0,0,.383.1.826.826,0,0,0,.632-.3.806.806,0,0,0,.18-.668L9.115,8.315a.364.364,0,0,1,.1-.322Z" transform="translate(468 1823.953)" fill="#f9b72b"/><path d="M11.232,6.032a.823.823,0,0,0-.457-1.4L8,4.224a.363.363,0,0,1-.274-.2L6.479,1.506A.823.823,0,0,0,5,1.506L3.759,4.025a.364.364,0,0,1-.274.2l-2.78.4a.823.823,0,0,0-.457,1.4L2.26,7.993a.364.364,0,0,1,.1.322L1.89,11.083a.806.806,0,0,0,.18.668.832.832,0,0,0,1.015.2l2.486-1.307a.372.372,0,0,1,.338,0L8.4,11.951a.815.815,0,0,0,.383.1.826.826,0,0,0,.632-.3.806.806,0,0,0,.18-.668L9.115,8.315a.364.364,0,0,1,.1-.322Z" transform="translate(486 1823.953)" fill="#f9b72b"/><path d="M11.232,6.032a.823.823,0,0,0-.457-1.4L8,4.224a.363.363,0,0,1-.274-.2L6.479,1.506A.823.823,0,0,0,5,1.506L3.759,4.025a.364.364,0,0,1-.274.2l-2.78.4a.823.823,0,0,0-.457,1.4L2.26,7.993a.364.364,0,0,1,.1.322L1.89,11.083a.806.806,0,0,0,.18.668.832.832,0,0,0,1.015.2l2.486-1.307a.372.372,0,0,1,.338,0L8.4,11.951a.815.815,0,0,0,.383.1.826.826,0,0,0,.632-.3.806.806,0,0,0,.18-.668L9.115,8.315a.364.364,0,0,1,.1-.322Z" transform="translate(504 1823.953)" fill="#f9b72b"/><path d="M11.232,6.032a.823.823,0,0,0-.457-1.4L8,4.224a.363.363,0,0,1-.274-.2L6.479,1.506A.823.823,0,0,0,5,1.506L3.759,4.025a.364.364,0,0,1-.274.2l-2.78.4a.823.823,0,0,0-.457,1.4L2.26,7.993a.364.364,0,0,1,.1.322L1.89,11.083a.806.806,0,0,0,.18.668.832.832,0,0,0,1.015.2l2.486-1.307a.372.372,0,0,1,.338,0L8.4,11.951a.815.815,0,0,0,.383.1.826.826,0,0,0,.632-.3.806.806,0,0,0,.18-.668L9.115,8.315a.364.364,0,0,1,.1-.322Z" transform="translate(522 1823.953)" fill="#f9b72b"/><path d="M11.232,6.032a.823.823,0,0,0-.457-1.4L8,4.224a.363.363,0,0,1-.274-.2L6.479,1.506A.823.823,0,0,0,5,1.506L3.759,4.025a.364.364,0,0,1-.274.2l-2.78.4a.823.823,0,0,0-.457,1.4L2.26,7.993a.364.364,0,0,1,.1.322L1.89,11.083a.806.806,0,0,0,.18.668.832.832,0,0,0,1.015.2l2.486-1.307a.372.372,0,0,1,.338,0L8.4,11.951a.815.815,0,0,0,.383.1.826.826,0,0,0,.632-.3.806.806,0,0,0,.18-.668L9.115,8.315a.364.364,0,0,1,.1-.322Z" transform="translate(540 1823.953)" fill="#f9b72b"/></g></svg>