<svg xmlns="http://www.w3.org/2000/svg" xmlns:xlink="http://www.w3.org/1999/xlink" width="142.324" height="41.079" viewBox="0 0 142.324 41.079"><defs><clipPath id="a"><rect width="142.324" height="41.079" fill="none"/></clipPath></defs><g clip-path="url(#a)"><path d="M-57.11,379.634V362.469h3.789v2.582a4.875,4.875,0,0,1,2.2-2.183,6.6,6.6,0,0,1,3.061-.776,6.091,6.091,0,0,1,4.839,1.958,8.213,8.213,0,0,1,1.715,5.584v10H-45.3v-9.54a4.659,4.659,0,0,0-.97-3.147,3.308,3.308,0,0,0-2.639-1.121,4.579,4.579,0,0,0-3.151,1.121,4.4,4.4,0,0,0-1.266,3.47v9.217Z" transform="translate(57.11 -353.61)" fill="#fff"/><path d="M31.133,373.911v-10h3.789v9.552a4.673,4.673,0,0,0,.987,3.187,3.279,3.279,0,0,0,2.586,1.122,4.564,4.564,0,0,0,3.142-1.131,4.446,4.446,0,0,0,1.275-3.5V363.91H46.7v17.166H42.912v-2.5a4.729,4.729,0,0,1-2.164,2.119,6.516,6.516,0,0,1-2.954.736,6.276,6.276,0,0,1-4.92-1.957,7.982,7.982,0,0,1-1.742-5.567" transform="translate(-12.816 -355.072)" fill="#fff"/><path d="M119.631,342.15v-3.124h3.088v-6.518h3.788v6.518h3.645v3.124h-3.645v14.041H122.72V342.15Z" transform="translate(-84.227 -329.67)" fill="#fff"/><path d="M183.908,379.634V362.469H187.7V366.4q1.239-4.31,4.722-4.31a7.87,7.87,0,0,1,1.759.2,4.359,4.359,0,0,1,1.293.467l-.628,3.5a5.55,5.55,0,0,0-2.55-.593,3.7,3.7,0,0,0-3.465,2.1,12.072,12.072,0,0,0-1.131,5.692v6.177Z" transform="translate(-135.642 -353.61)" fill="#fff"/><path d="M248.664,322.943a2.231,2.231,0,0,1-.74-1.7,2.261,2.261,0,0,1,.74-1.706,2.63,2.63,0,0,1,3.564-.009,2.276,2.276,0,0,1,.724,1.715,2.247,2.247,0,0,1-.724,1.706,2.656,2.656,0,0,1-3.564-.009m-.129,5.252h3.789v17.166h-3.789Z" transform="translate(-186.735 -318.84)" fill="#fff"/><path d="M283.466,375.7a8.891,8.891,0,0,1-1.278-4.728,8.662,8.662,0,0,1,1.278-4.683,8.491,8.491,0,0,1,3.358-3.122,9.79,9.79,0,0,1,4.558-1.074,9.44,9.44,0,0,1,3.825.778,8.139,8.139,0,0,1,2.98,2.188l-2.945,2.346a4.862,4.862,0,0,0-3.86-1.649,5.48,5.48,0,0,0-3.816,1.443,4.857,4.857,0,0,0-1.589,3.773,5.067,5.067,0,0,0,1.6,3.845,5.494,5.494,0,0,0,5.961,1.067,4.726,4.726,0,0,0,1.706-1.237l2.981,2.32a8.222,8.222,0,0,1-3,2.24,9.376,9.376,0,0,1-3.843.789,9.6,9.6,0,0,1-4.549-1.1,8.581,8.581,0,0,1-3.367-3.194" transform="translate(-214.325 -353.618)" fill="#fff"/><path d="M363.793,375.724a9.074,9.074,0,0,1-1.233-4.717,8.962,8.962,0,0,1,1.233-4.7,8.311,8.311,0,0,1,3.26-3.14,9.852,9.852,0,0,1,8.969,0,8.261,8.261,0,0,1,3.265,3.14,8.988,8.988,0,0,1,1.229,4.7,9.1,9.1,0,0,1-1.229,4.717,8.305,8.305,0,0,1-3.274,3.176,9.7,9.7,0,0,1-8.951,0,8.355,8.355,0,0,1-3.269-3.176m2.555-4.717a5.169,5.169,0,0,0,1.5,3.845,5.35,5.35,0,0,0,7.385,0,5.169,5.169,0,0,0,1.5-3.845,4.954,4.954,0,0,0-1.5-3.746,5.471,5.471,0,0,0-7.385,0,4.953,4.953,0,0,0-1.5,3.746" transform="translate(-278.669 -353.618)" fill="#fff"/><path d="M458,375.724a9.074,9.074,0,0,1-1.233-4.717,8.962,8.962,0,0,1,1.233-4.7,8.31,8.31,0,0,1,3.26-3.14,9.852,9.852,0,0,1,8.969,0,8.259,8.259,0,0,1,3.265,3.14,8.988,8.988,0,0,1,1.229,4.7,9.1,9.1,0,0,1-1.229,4.717,8.3,8.3,0,0,1-3.273,3.176,9.7,9.7,0,0,1-8.951,0A8.354,8.354,0,0,1,458,375.724m2.555-4.717a5.168,5.168,0,0,0,1.5,3.845,5.35,5.35,0,0,0,7.385,0,5.168,5.168,0,0,0,1.5-3.845,4.952,4.952,0,0,0-1.5-3.746,5.47,5.47,0,0,0-7.385,0,4.953,4.953,0,0,0-1.5,3.746" transform="translate(-354.047 -353.618)" fill="#fff"/><path d="M552.712,345.36V318.839H556.5V333.85l5.44-5.656h5.082l-7.308,7.451,8.96,9.714h-4.848l-7.326-7.972v7.972Z" transform="translate(-430.905 -318.839)" fill="#fff"/><path d="M639.109,432.565a1.457,1.457,0,1,1-1.439,1.459,1.448,1.448,0,0,1,1.439-1.459m0,2.589a1.132,1.132,0,1,0-1.117-1.13,1.121,1.121,0,0,0,1.117,1.13m.243-.9a.468.468,0,0,0,.322-.462.453.453,0,0,0-.482-.47h-.585v1.4h.346v-.449h.029l.3.449h.416Zm-.169-.623c.082,0,.136.095.136.161a.161.161,0,0,1-.149.173h-.218v-.334Z" transform="translate(-498.227 -409.781)" fill="#fff"/><path d="M15.361,487.669H13.794v-5.628h1.5v.7a1.911,1.911,0,0,1,1.663-.831,2.007,2.007,0,0,1,2.078,2.238v3.517H17.471v-3.294a.992.992,0,0,0-1.055-1.119,1.115,1.115,0,0,0-1.087,1.055v.1Z" transform="translate(0.924 -449.44)" fill="#fff"/><path d="M46.99,487.558a1.858,1.858,0,0,1-1.6.768,2.057,2.057,0,0,1-2.174-1.983v-3.805h1.567v3.23a.992.992,0,0,0,1.055,1.119,1.012,1.012,0,0,0,1.087-.959v-3.389h1.567v5.6H47.022Z" transform="translate(-22.392 -449.937)" fill="#fff"/><path d="M97.911,484.009H97.4c-.8,0-1.471.384-1.471,1.567v2.558H94.362v-5.6h1.5v.831a1.689,1.689,0,0,1,1.631-.831h.416Z" transform="translate(-63.966 -449.937)" fill="#fff"/><rect width="1.535" height="5.596" transform="translate(34.524 32.601)" fill="#fff"/><path d="M128.408,477.545v-8.41h1.535v3.422a2.094,2.094,0,0,1,1.727-.767,2.65,2.65,0,0,1,2.654,2.942,2.71,2.71,0,0,1-2.686,2.942,1.966,1.966,0,0,1-1.695-.831v.672h-1.535Zm2.942-4.413a1.441,1.441,0,0,0-1.439,1.6,1.433,1.433,0,1,0,1.439-1.6" transform="translate(-91.202 -439.316)" fill="#fff"/><path d="M164.07,487.558a1.858,1.858,0,0,1-1.6.768,2.057,2.057,0,0,1-2.174-1.983v-3.805h1.567v3.23a.992.992,0,0,0,1.055,1.119,1.012,1.012,0,0,0,1.087-.959v-3.389h1.567v5.6H164.1Z" transform="translate(-116.689 -449.937)" fill="#fff"/><rect width="1.535" height="8.41" transform="translate(50.018 29.819)" fill="#fff"/><rect width="1.535" height="8.41" transform="translate(52.802 29.819)" fill="#fff"/><path d="M250.8,474.969H249.74v-1.982h-1.535v1.982h-1.023v1.343h1.023v4.253h1.535v-4.253H250.8Z" transform="translate(-186.121 -442.368)" fill="#fff"/><path d="M75.946,474.969H74.923v-1.982H73.388v1.982H72.333v1.343h1.055v4.253h1.535v-4.253h1.023Z" transform="translate(-46.358 -442.368)" fill="#fff"/><path d="M114.886,468.673a.95.95,0,0,1,.9.959.921.921,0,0,1-.959.863.934.934,0,0,1-.9-.863.872.872,0,0,1,.288-.672.921.921,0,0,1,.672-.288" transform="translate(-79.592 -438.626)" fill="#fff"/><path d="M221.939,485.611a1.249,1.249,0,0,1-1.247.671A1.4,1.4,0,0,1,219.253,485h4.125c0-.032.032-.256.032-.48a2.656,2.656,0,0,0-2.846-2.91,2.812,2.812,0,0,0-2.814,2.878v.1a2.891,2.891,0,0,0,2.75,3.006h.192a2.617,2.617,0,0,0,2.558-1.6Zm-1.343-2.75a1.14,1.14,0,0,1,1.279,1.119h-2.558a1.21,1.21,0,0,1,1.279-1.119" transform="translate(-162.621 -449.204)" fill="#fff"/><path d="M264.162,504.512a.581.581,0,1,1-.573.581.577.577,0,0,1,.573-.581m0,1.031a.451.451,0,1,0-.445-.45.446.446,0,0,0,.445.45m.1-.358a.187.187,0,0,0,.128-.184.18.18,0,0,0-.192-.187h-.233v.557h.138v-.179h.011l.12.179h.166Zm-.067-.248c.033,0,.054.038.054.064a.064.064,0,0,1-.059.069H264.1v-.133Z" transform="translate(-199.199 -467.349)" fill="#fff"/><path d="M-57.054,477.3v-8.628h1.232v3.839a1.649,1.649,0,0,1,.76-.68,2.612,2.612,0,0,1,1.122-.238,2.841,2.841,0,0,1,1.079.207,2.751,2.751,0,0,1,.892.577,2.648,2.648,0,0,1,.6.925,3.216,3.216,0,0,1,.223,1.208,3,3,0,0,1-.387,1.526,2.656,2.656,0,0,1-1.026,1.026,2.836,2.836,0,0,1-1.4.354,2.512,2.512,0,0,1-1.1-.248,1.716,1.716,0,0,1-.768-.68v.812Zm1.244-2.813a1.661,1.661,0,0,0,.5,1.264,1.7,1.7,0,0,0,1.212.474,1.629,1.629,0,0,0,1.2-.488,1.694,1.694,0,0,0,.488-1.249,1.641,1.641,0,0,0-.485-1.228,1.653,1.653,0,0,0-1.2-.474,1.739,1.739,0,0,0-1.194.462,1.581,1.581,0,0,0-.517,1.24" transform="translate(57.066 -438.95)" fill="#fff"/><path d="M-30.051,483.336h1.314l1.554,3.826,1.565-3.826h1.32l-3.458,8.312h-1.291l1.209-2.991Z" transform="translate(35.668 -450.569)" fill="#fff"/></g></svg>