<svg xmlns="http://www.w3.org/2000/svg" width="29.774" height="29.98" viewBox="0 0 29.774 29.98"><g transform="translate(-0.5 -0.2)"><g transform="translate(0.5 0.2)"><path d="M22.254,6.566a2.059,2.059,0,0,0,2.053-2.053V2.253a2.053,2.053,0,0,0-4.107,0V4.409A2.02,2.02,0,0,0,22.254,6.566Z" transform="translate(0.026 -0.2)" fill="#e12a3c"/><path d="M30.172,3.7H25.962V4.729a3.183,3.183,0,0,1-6.366,0V3.7H11.075V4.729A3.2,3.2,0,0,1,7.892,7.912a3.112,3.112,0,0,1-3.08-3.183V3.7L.5,3.6V30.089H30.274ZM28.118,28.036H2.656V11.095H28.118V28.036Z" transform="translate(-0.5 -0.109)" fill="#e12a3c"/><path d="M7.753,6.566A2.059,2.059,0,0,0,9.807,4.512V2.253a2.053,2.053,0,0,0-4.107,0V4.409A2.15,2.15,0,0,0,7.753,6.566Z" transform="translate(-0.361 -0.2)" fill="#e12a3c"/></g><g transform="translate(6.044 13.855)"><g transform="translate(0 0)"><path d="M5.9,23.554l2.259-1.129c.1.308.411.513.719.821a2.665,2.665,0,0,0,1.027.411,1.544,1.544,0,0,0,1.129-.411,2.424,2.424,0,0,0,.616-.924v-.513a.377.377,0,0,0-.1-.308c0-.1-.1-.205-.205-.308l-.308-.308c-.1-.1-.308-.1-.513-.205-.205,0-.411-.1-.719-.1H8.775V18.421h1.335a1.3,1.3,0,0,0,.616-.1,1.417,1.417,0,0,0,.411-.308c.1-.1.1-.205.205-.411a1.034,1.034,0,0,1,.1-.308v-.205h0a1.116,1.116,0,0,0-.1-.513,1.8,1.8,0,0,0-.411-.513h-.821a1.163,1.163,0,0,0-1.232.719L6.824,15.546a3.838,3.838,0,0,1,1.54-1.335,4.238,4.238,0,0,1,2.259-.411A3.939,3.939,0,0,1,13.19,14.93a3.119,3.119,0,0,1,1.027,2.361,2.064,2.064,0,0,1-.411,1.335,3.661,3.661,0,0,1-1.129,1.027,3.19,3.19,0,0,1,1.54,1.335,3.485,3.485,0,0,1,.513,1.951,3.058,3.058,0,0,1-.821,1.848,4.461,4.461,0,0,1-1.745,1.232,4.2,4.2,0,0,1-2.259.308,5.02,5.02,0,0,1-2.361-.821A5.961,5.961,0,0,1,5.9,23.554Z" transform="translate(-5.9 -13.493)" fill="#e12a3c"/><path d="M16.3,19.866a13.09,13.09,0,0,1,.1-2.053,10.741,10.741,0,0,1,.411-1.745,4.22,4.22,0,0,1,.821-1.335,4.39,4.39,0,0,1,1.335-.924,4.974,4.974,0,0,1,1.848-.308,4.974,4.974,0,0,1,1.848.308A3.907,3.907,0,0,1,24,14.732a5.821,5.821,0,0,1,.821,1.335,8.7,8.7,0,0,1,.411,1.745,12.446,12.446,0,0,1,.1,2.053,11.18,11.18,0,0,1-.1,1.951,10.741,10.741,0,0,1-.411,1.745A4.22,4.22,0,0,1,24,24.9a3.4,3.4,0,0,1-1.335.924,4.974,4.974,0,0,1-1.848.308,4.974,4.974,0,0,1-1.848-.308,3.907,3.907,0,0,1-1.335-.924,5.821,5.821,0,0,1-.821-1.335,4.837,4.837,0,0,1-.411-1.745C16.4,21.3,16.3,20.584,16.3,19.866Zm2.669,0a6.314,6.314,0,0,0,.1,1.437c.1.411.205.821.308,1.129a1.6,1.6,0,0,0,.616.821,1.656,1.656,0,0,0,.924.308q1.848,0,1.848-3.7c0-2.464-.616-3.8-1.848-3.8a1.656,1.656,0,0,0-.924.308,2.471,2.471,0,0,0-.616.821,10.654,10.654,0,0,0-.308,1.232A6.314,6.314,0,0,0,18.969,19.866Z" transform="translate(-5.622 -13.5)" fill="#e12a3c"/></g></g></g></svg>