<svg xmlns="http://www.w3.org/2000/svg" width="28.711" height="33.328" viewBox="0 0 28.711 33.328"><g transform="translate(-2.326 -0.025)"><g transform="translate(2.326 0.025)"><path d="M3.192,3.8C8.117,6.6,12.259,3.355,16.065.445l.448-.336a.34.34,0,0,1,.448,0l.448.336C21.213,3.355,25.355,6.6,30.28,3.8c.112-.112.448,0,.448.112a.21.21,0,0,1,0,.336c-2.239,5.373-1.231,9.29-.448,12.536,1.455,5.82,2.463,9.962-13.432,16.566h-.224C.618,26.861,1.625,22.719,3.08,16.9c.784-3.246,1.791-7.164-.448-12.536-.112-.224,0-.448.224-.448A.411.411,0,0,1,3.192,3.8Zm.672,13.32c-1.343,5.485-2.351,9.29,12.872,15.559,15.111-6.268,14.215-10.074,12.872-15.559-.784-3.246-1.679-7.052.112-12.089C24.8,7.161,20.654,3.915,16.96,1.116L16.736,1l-.224.112c-3.694,2.8-7.835,6.044-12.76,3.806C5.543,10.071,4.647,13.877,3.864,17.123Z" transform="translate(-2.326 -0.025)" fill="#e12a3c"/></g><g transform="translate(11.251 8.168)"><g transform="translate(0)"><path d="M10.3,12a5.509,5.509,0,0,1,1.791-3.47A5,5,0,0,1,15.673,7.3a6.64,6.64,0,0,1,2.574.56,6.853,6.853,0,0,1,1.9,1.679A4.793,4.793,0,0,1,20.822,12a5.877,5.877,0,0,1-1.679,4.03l-3.918,4.477H20.6v2.8H10.412V21.739L16.9,13.9a3.359,3.359,0,0,0,1.007-2.127,1.6,1.6,0,0,0-.672-1.343,6.775,6.775,0,0,0-1.679-.224,2.278,2.278,0,0,0-1.679.672,2.381,2.381,0,0,0-.784,1.679Z" transform="translate(-10.3 -7.3)" fill="#e12a3c"/></g></g></g></svg>