<svg xmlns="http://www.w3.org/2000/svg" width="23.704" height="25" viewBox="0 0 23.704 25"><g transform="translate(-1013 -67)"><g transform="translate(1020.018 67)" fill="none" stroke="#000" stroke-width="1"><circle cx="4.932" cy="4.932" r="4.932" stroke="none"/><circle cx="4.932" cy="4.932" r="4.432" fill="none"/></g><g transform="translate(1013 80.634)" fill="none" stroke="#000" stroke-width="1"><path d="M11.366,0h.972A11.366,11.366,0,0,1,23.7,11.366v0a0,0,0,0,1,0,0H0a0,0,0,0,1,0,0v0A11.366,11.366,0,0,1,11.366,0Z" stroke="none"/><path d="M10.693.5h2.317A10.193,10.193,0,0,1,23.2,10.693v0a.173.173,0,0,1-.173.173H.673A.173.173,0,0,1,.5,10.693v0A10.193,10.193,0,0,1,10.693.5Z" fill="none"/></g></g></svg>