<svg xmlns="http://www.w3.org/2000/svg" width="26.002" height="26" viewBox="0 0 26.002 26"><path d="M9.5,22A2.5,2.5,0,1,0,12,24.5,2.489,2.489,0,0,0,9.5,22M22,22a2.5,2.5,0,1,0,2.5,2.5A2.489,2.489,0,0,0,22,22M4.5,2H2V4.5H4.5L9,13.984,7.306,17.048A2.5,2.5,0,0,0,9.5,20.75h15v-2.5H10.029a.311.311,0,0,1-.311-.312l.038-.151,1.122-2.036h9.311a2.5,2.5,0,0,0,2.188-1.286l4.467-8.111A1.226,1.226,0,0,0,27,5.75,1.251,1.251,0,0,0,25.75,4.5H7.266L6.759,3.431A2.5,2.5,0,0,0,4.5,2" transform="translate(-1.499 -1.5)" fill="none" stroke="#000" stroke-width="1" fill-rule="evenodd"/></svg>