<svg xmlns="http://www.w3.org/2000/svg" width="9.701" height="17.47" viewBox="0 0 9.701 17.47"><g transform="translate(0)"><path d="M17.145,0,14.818,0a4.031,4.031,0,0,0-4.3,4.3V6.282H8.175a.361.361,0,0,0-.366.356V9.51a.361.361,0,0,0,.366.356h2.34v7.247a.361.361,0,0,0,.366.356h3.053a.361.361,0,0,0,.366-.356V9.867h2.736A.361.361,0,0,0,17.4,9.51V6.638a.352.352,0,0,0-.107-.252.371.371,0,0,0-.259-.1H14.3V4.6c0-.808.2-1.218,1.278-1.218h1.568a.361.361,0,0,0,.366-.356V.36A.361.361,0,0,0,17.145,0Z" transform="translate(-7.809)" fill="#fff"/></g></svg>