<svg xmlns="http://www.w3.org/2000/svg" width="38.568" height="35.762" viewBox="0 0 38.568 35.762"><g transform="translate(-0.3 -1.161)"><path d="M33.106,27.5c0,.4-5.35.8-11.9.8s-11.9-.4-11.9-.8,5.35-.8,11.9-.8S33.106,26.967,33.106,27.5Z" transform="translate(3.037 8.618)" fill="#bcbec0"/><path d="M11.8,12.237.3,11.569,11.534,10.9Zm.267,1.337L1.1,14.244l11.234.669Zm.4,2.541-10.7.535L12.6,17.32Z" transform="translate(0 3.286)" fill="#424142"/><g transform="translate(7.603 1.161)"><path d="M36.975,25.554a.592.592,0,0,0-.936-.267,6.978,6.978,0,0,0-2.809,2.675,11.08,11.08,0,0,0-4.146-5.617l4.012-.669c.4-.134.669-.4.535-.8L31.091,7.1l3.076-4.815a.853.853,0,0,0,0-.8.489.489,0,0,0-.669-.267l-5.35.936a1.014,1.014,0,0,0-.535.267L24.537,7.232,16.646,8.569,12.1,5.092c0-.134-.267-.134-.4-.134l-5.35.936c-.267.134-.535.267-.535.535-.134.267,0,.535.267.8l4.547,3.477,2.407,13.642c0,.134.134.4.267.4a.491.491,0,0,0,.4.134h.134l4.681-.8c.535,2.274-.134,4.012-1.471,4.681C15.71,29.3,13.7,28.63,12.1,26.089a.758.758,0,0,0-1.337,0l-2.14,4.28a.767.767,0,0,0,.267.936.467.467,0,0,1,.267.134.735.735,0,0,0,.669-.4s.8-1.739,1.6-3.21c1.872,2.541,4.28,2.942,6.018,2.274,1.6-.669,3.076-2.675,2.274-6.152l6.553-1.2c.936.267,4.681,1.739,5.751,7.222a.612.612,0,0,0,.669.535h.134a.735.735,0,0,0,.669-.4,8.562,8.562,0,0,1,3.076-3.611A.735.735,0,0,0,36.975,25.554ZM19.589,22.478,17.449,9.906l12.438-2.14,2.14,12.572ZM28.683,3.487l3.344-.535L30.021,6.3l-3.344.535ZM11.564,6.429l3.21,2.541-3.344.535L8.221,7.1Zm.535,4.413,3.879-.669,2.14,12.572-3.879.669Z" transform="translate(-5.761 -1.161)" fill="#e12a3c"/><path d="M24.783,10.911l-2.407.4-2.407.4-.4-1.739L19.3,8.1l2.407-.4,2.407-.4.4,1.739Z" transform="translate(-1.192 0.911)" fill="#e12a3c"/></g></g></svg>