<svg xmlns="http://www.w3.org/2000/svg" width="25.032" height="25" viewBox="0 0 25.032 25"><path d="M110.527,362.895a12.484,12.484,0,0,0-8.708-3.523h0a12.5,12.5,0,1,0,0,25h0a12.5,12.5,0,0,0,8.711-21.477Zm-8.294,4.406c1.743-.011,3.239-.088,4.509-.2a22.663,22.663,0,0,1,.481,4.354h-4.99Zm0-.834v-6.223a3.1,3.1,0,0,1,1.371.661,7.194,7.194,0,0,1,1.817,2.372,14.736,14.736,0,0,1,1.122,3C105.323,366.384,103.891,366.456,102.233,366.467Zm-.834-6.222v6.222c-1.657-.011-3.089-.083-4.31-.188a15.164,15.164,0,0,1,.992-2.741C99,361.639,100.191,360.467,101.4,360.245Zm0,7.055v4.155H96.408a22.57,22.57,0,0,1,.485-4.354C98.163,367.213,99.659,367.289,101.4,367.3Zm-5.825,4.155H90.141a11.564,11.564,0,0,1,1.459-5.249,25.372,25.372,0,0,0,4.461.814A23.613,23.613,0,0,0,95.575,371.455Zm0,.833a23.633,23.633,0,0,0,.483,4.435,25.312,25.312,0,0,0-4.462.815,11.584,11.584,0,0,1-1.455-5.25Zm.834,0h4.99v4.155c-1.743.011-3.239.088-4.509.2A22.655,22.655,0,0,1,96.41,372.289Zm4.99,4.989V383.5a3.1,3.1,0,0,1-1.371-.66,7.206,7.206,0,0,1-1.817-2.372,14.743,14.743,0,0,1-1.122-3C98.31,377.36,99.742,377.288,101.4,377.277Zm.834,6.222v-6.222c1.657.011,3.089.083,4.31.188a15.146,15.146,0,0,1-.992,2.741C104.632,382.1,103.442,383.277,102.233,383.5Zm0-7.055v-4.155h4.991a22.546,22.546,0,0,1-.485,4.353C105.47,376.531,103.975,376.454,102.233,376.444Zm5.825-4.155h5.434a11.561,11.561,0,0,1-1.459,5.248,25.366,25.366,0,0,0-4.461-.814A23.6,23.6,0,0,0,108.058,372.289Zm0-.833a23.616,23.616,0,0,0-.483-4.435,25.356,25.356,0,0,0,4.462-.815,11.583,11.583,0,0,1,1.455,5.249Zm1.891-7.962a11.773,11.773,0,0,1,1.638,1.971,26.624,26.624,0,0,1-4.2.734,15.661,15.661,0,0,0-1.219-3.3,8.479,8.479,0,0,0-1.757-2.4A11.628,11.628,0,0,1,109.948,363.494Zm-16.521.261a11.646,11.646,0,0,1,5.8-3.262,8.752,8.752,0,0,0-1.9,2.681,16.066,16.066,0,0,0-1.081,3.024,26.65,26.65,0,0,1-4.2-.733A11.818,11.818,0,0,1,93.427,363.755Zm.259,16.5a11.787,11.787,0,0,1-1.638-1.971,26.628,26.628,0,0,1,4.2-.735,15.669,15.669,0,0,0,1.219,3.305,8.476,8.476,0,0,0,1.757,2.4A11.629,11.629,0,0,1,93.685,380.251Zm16.521-.262a11.651,11.651,0,0,1-5.8,3.262,8.753,8.753,0,0,0,1.9-2.681,16.045,16.045,0,0,0,1.081-3.024,26.706,26.706,0,0,1,4.2.733A11.809,11.809,0,0,1,110.206,379.989Z" transform="translate(-89.3 -359.372)"/></svg>