<svg xmlns="http://www.w3.org/2000/svg" width="15.283" height="14.879" viewBox="0 0 15.283 14.879"><path d="M10.507,0H4.776A4.715,4.715,0,0,0,0,4.65v5.58a4.715,4.715,0,0,0,4.776,4.65h5.731a4.715,4.715,0,0,0,4.776-4.65V4.65A4.715,4.715,0,0,0,10.507,0ZM13.85,10.229a3.3,3.3,0,0,1-3.343,3.255H4.776a3.3,3.3,0,0,1-3.343-3.255V4.65A3.3,3.3,0,0,1,4.776,1.395h5.731A3.3,3.3,0,0,1,13.85,4.65Z" fill="#fff"/><g transform="translate(3.821 3.72)"><path d="M131.821,128a3.721,3.721,0,1,0,3.821,3.72A3.771,3.771,0,0,0,131.821,128Zm0,6.045a2.326,2.326,0,1,1,2.388-2.325A2.36,2.36,0,0,1,131.821,134.045Z" transform="translate(-128 -128)" fill="#fff"/></g><g transform="translate(11.239 2.945)"><ellipse cx="0.509" cy="0.496" rx="0.509" ry="0.496" fill="#fff"/></g></svg>