<svg xmlns="http://www.w3.org/2000/svg" width="50.779" height="35.762" viewBox="0 0 50.779 35.762"><g transform="translate(-164 -18)"><g transform="translate(164 18)"><path d="M1197.943,1591.3l-1.734-1.162-1.963-4.1a4.668,4.668,0,0,0-3.708-2.437c-.021,0-.043,0-.064,0h-4.937v-2.582a2.358,2.358,0,0,0-2.356-2.355h-20.214a.638.638,0,1,0,0,1.276h20.214a1.081,1.081,0,0,1,1.079,1.079V1591.2l-12.285-.007h0a.638.638,0,0,0,0,1.276l12.286.007v2.728a.638.638,0,0,0,1.276,0v-10.328h4.9a3.436,3.436,0,0,1,2.026.914,3.136,3.136,0,0,1,.628.8h0l2.039,4.256a.638.638,0,0,0,.22.255l1.878,1.258a2.452,2.452,0,0,1,.876,1.432h-.883a.638.638,0,0,0,0,1.276h.958v2.638a1.081,1.081,0,0,1-1.079,1.08h-2.578a4.023,4.023,0,0,0-7.944,0h-12.919a4.023,4.023,0,0,0-7.944,0h-2.75a1.081,1.081,0,0,1-1.08-1.08v-3.276a.638.638,0,1,0-1.276,0v3.276a2.358,2.358,0,0,0,2.352,2.356h2.753a4.023,4.023,0,0,0,7.944,0h12.919a4.023,4.023,0,0,0,7.944,0h2.581a2.358,2.358,0,0,0,2.352-2.356v-3.226A3.855,3.855,0,0,0,1197.943,1591.3Zm-28.253,10.87a2.75,2.75,0,0,1-2.747-2.746h0a2.747,2.747,0,1,1,2.747,2.747Zm20.864,0a2.747,2.747,0,1,1,2.747-2.747A2.75,2.75,0,0,1,1190.553,1602.173Z" transform="translate(-1150.741 -1567.688)" fill="#e12a3b"/><path d="M2460.092,1929.71a.638.638,0,1,0,0-1.276,2.358,2.358,0,0,0-2.355,2.356v1.665a2.358,2.358,0,0,0,2.355,2.355h2.99a.638.638,0,0,0,0-1.276h-2.99a1.081,1.081,0,0,1-1.08-1.079v-1.665A1.081,1.081,0,0,1,2460.092,1929.71Z" transform="translate(-2420.28 -1910.019)" fill="#e12a3b"/><path d="M889.9,1770.631h1.421a.638.638,0,1,0,0-1.276H889.9a.638.638,0,1,0,0,1.276Z" transform="translate(-885.162 -1754.323)" fill="#e12a3b"/><path d="M1014.581,1579.94H1016a.638.638,0,1,0,0-1.276h-1.421a.638.638,0,1,0,0,1.276Z" transform="translate(-1007.192 -1567.688)" fill="#e12a3b"/><path d="M1130.2,1769.993a.638.638,0,0,0-.638-.638h-8.31a.638.638,0,0,0,0,1.276h8.31A.638.638,0,0,0,1130.2,1769.993Z" transform="translate(-1111.595 -1754.323)" fill="#e12a3b"/><path d="M894.218,1981.155a.638.638,0,0,0-.638-.638h-1.093a.638.638,0,0,0,0,1.276h1.093A.638.638,0,0,0,894.218,1981.155Z" transform="translate(-887.694 -1960.995)" fill="#e12a3b"/><path d="M698.322,1980.517h-1.2a.638.638,0,1,0,0,1.276h1.2a.638.638,0,0,0,0-1.276Z" transform="translate(-696.481 -1960.995)" fill="#e12a3b"/><path d="M1092.992,1980.517a.638.638,0,0,0,0,1.276h5.084a.638.638,0,0,0,0-1.276Z" transform="translate(-1083.935 -1960.995)" fill="#e12a3b"/><path d="M985.681,2168.892a.638.638,0,0,0-.638-.638h-6.451a.638.638,0,0,0,0,1.276h6.451A.638.638,0,0,0,985.681,2168.892Z" transform="translate(-971.968 -2144.739)" fill="#e12a3b"/><path d="M1452.347,2168.254h-.765a.638.638,0,0,0,0,1.276h.765a.638.638,0,1,0,0-1.276Z" transform="translate(-1434.899 -2144.739)" fill="#e12a3b"/><path d="M2091.554,1069.285a11.086,11.086,0,0,0-20.641.574.638.638,0,1,0,1.2.43,9.805,9.805,0,0,1,19.035,3.308,9.7,9.7,0,0,1-2.112,6.079.638.638,0,0,0,1,.792,11.094,11.094,0,0,0,1.516-11.183Z" transform="translate(-2041.646 -1062.518)" fill="#e12a3b"/><path d="M2476.381,1227.036a.638.638,0,0,0-.638.638v5.158a1.9,1.9,0,1,0,2.423,2.423h4.355a.638.638,0,1,0,0-1.276h-4.355a1.9,1.9,0,0,0-1.147-1.147v-5.158A.638.638,0,0,0,2476.381,1227.036Zm0,8.2a.619.619,0,1,1,.619-.619A.62.62,0,0,1,2476.381,1235.236Z" transform="translate(-2436.674 -1223.537)" fill="#e12a3b"/><path d="M1538.326,2504.771a1.067,1.067,0,1,0,1.068,1.067A1.069,1.069,0,0,0,1538.326,2504.771Z" transform="translate(-1519.378 -2474.1)" fill="#e12a3b"/><path d="M2519.376,2504.771a1.067,1.067,0,1,0,1.068,1.067A1.069,1.069,0,0,0,2519.376,2504.771Z" transform="translate(-2479.565 -2474.1)" fill="#e12a3b"/></g></g></svg>