<svg xmlns="http://www.w3.org/2000/svg" width="18.197" height="14.391" viewBox="0 0 18.197 14.391"><g transform="translate(0 0)"><g transform="translate(0 0)"><path d="M18.2,59.144a7.613,7.613,0,0,1-2.143.572A3.669,3.669,0,0,0,17.7,57.707a7.65,7.65,0,0,1-2.372.882A3.77,3.77,0,0,0,12.6,57.441a3.685,3.685,0,0,0-3.733,3.633,3.553,3.553,0,0,0,.1.828,10.7,10.7,0,0,1-7.694-3.8,3.534,3.534,0,0,0-.5,1.827,3.608,3.608,0,0,0,1.66,3.024A3.81,3.81,0,0,1,.733,62.5v.045a3.664,3.664,0,0,0,2.994,3.564,3.877,3.877,0,0,1-.984.127,3.676,3.676,0,0,1-.7-.068,3.724,3.724,0,0,0,3.486,2.524A7.62,7.62,0,0,1,.891,70.246,8.146,8.146,0,0,1,0,70.2a10.76,10.76,0,0,0,5.722,1.635,10.4,10.4,0,0,0,10.62-10.34l-.013-.47A7.35,7.35,0,0,0,18.2,59.144Z" transform="translate(-0.001 -57.441)" fill="#fff"/></g></g></svg>